<svg xmlns="http://www.w3.org/2000/svg" version="1.1" xmlns:xlink="http://www.w3.org/1999/xlink" xmlns:svgjs="http://svgjs.dev/svgjs" width="1000" height="623" viewBox="0 0 1000 623"><g transform="matrix(1,0,0,1,-0.6060606060606233,0.2522267206477409)"><svg viewBox="0 0 396 247" data-background-color="#171a21" preserveAspectRatio="xMidYMid meet" height="623" width="1000" xmlns="http://www.w3.org/2000/svg" xmlns:xlink="http://www.w3.org/1999/xlink"><g id="tight-bounds" transform="matrix(1,0,0,1,0.2400000000000091,-0.09999999999999432)"><svg viewBox="0 0 395.52 247.2" height="247.2" width="395.52"><g><svg></svg></g><g><svg viewBox="0 0 395.52 247.2" height="247.2" width="395.52"><g><g><path d="M1.139 242.021l0-73.674 14.501 0v59.864h122.909v13.81zM1.139 5.869h14.501l0 72.984-14.501 0zM217.129 231.664c-18.091-10.358-32.316-24.582-42.673-42.673-3.777-6.581-6.866-13.462-9.266-20.644h15.307c1.79 4.737 3.919 9.339 6.388 13.808 8.977 16.204 21.36 28.909 37.149 38.115 15.743 9.207 33.282 13.81 52.616 13.81 19.334 0 36.896-4.603 52.685-13.81 15.743-9.207 28.103-21.912 37.08-38.115 2.468-4.469 4.597-9.071 6.387-13.808h15.627c-2.328 7.32-5.339 14.317-9.032 20.989-10.035 18.091-23.914 32.246-41.638 42.466-17.723 10.265-37.747 15.398-60.073 15.398-22.326 0-42.512-5.179-60.557-15.536zM174.317 59.521c10.219-18.505 24.26-33.052 42.121-43.639 17.815-10.588 37.77-15.882 59.867-15.882 22.096 0 42.121 5.294 60.073 15.882 17.953 10.588 32.108 25.134 42.466 43.639 3.465 6.207 6.351 12.651 8.657 19.332l-15.634 0c-1.671-4.128-3.603-8.155-5.797-12.081-9.207-16.434-21.751-29.369-37.632-38.807-15.882-9.437-33.374-14.155-52.479-14.155-19.104 0-36.482 4.718-52.133 14.155-15.651 9.437-27.965 22.372-36.941 38.807-2.139 3.927-4.023 7.954-5.652 12.081l-15.496 0c2.285-6.681 5.145-13.125 8.58-19.332z" fill="#000000" fill-rule="nonzero" stroke="none" stroke-width="1" stroke-linecap="butt" stroke-linejoin="miter" stroke-miterlimit="10" stroke-dasharray="" stroke-dashoffset="0" font-family="none" font-weight="none" font-size="none" text-anchor="none" style="mix-blend-mode: normal" data-fill-palette-color="tertiary"></path></g></g><g transform="matrix(1,0,0,1,0,85.87225651060486)"><svg viewBox="0 0 395.52 75.45548697879028" height="75.45548697879028" width="395.52"><g><svg viewBox="0 0 537.1295193219462 102.47109994721124" height="75.45548697879028" width="395.52"><g><rect width="3.6413923611015955" height="74.51769569243653" x="405.052440735868" y="13.976702127387355" fill="#000000" opacity="1" stroke-width="0" stroke="transparent" fill-opacity="1" class="rect-rb-0" data-fill-palette-color="primary" rx="1%" id="rb-0" data-palette-color="#9dbf9e"></rect></g><g transform="matrix(1,0,0,1,0,14.162069529607344)"><svg viewBox="0 0 395.52 74.14696088799656" height="74.14696088799656" width="395.52"><g><svg viewBox="0 0 395.52 74.14696088799656" height="74.14696088799656" width="395.52"><g><svg viewBox="0 0 395.52 40.378694724868474" height="40.378694724868474" width="395.52"><g transform="matrix(1,0,0,1,0,0)"><svg width="395.52" viewBox="5.25 -35.2 351.62 35.900000000000006" height="40.378694724868474" data-palette-color="#9dbf9e"><path d="M5.25-0.05L5.25-34.25 7.35-34.25 7.35-2.05 25.15-2.05 25.15-0.05 5.25-0.05ZM32.15-0.05L32.15-34.25 53.75-34.25 53.75-32.25 34.25-32.25 34.25-19.2 48.6-19.2 48.6-17.2 34.25-17.2 34.25-2.05 54.75-2.05 54.75-0.05 32.15-0.05ZM58.85-0.05L73.7-35.2 74.1-35.2 89.05-0.05 86.7-0.05 81.75-11.7 66.05-11.7 61.15-0.05 58.85-0.05ZM80.95-13.7L75.7-26.3Q75.1-27.7 74.52-29.4 73.95-31.1 73.85-31.45L73.85-31.45 73.55-30.45Q72.9-27.95 72.2-26.3L72.2-26.3 66.85-13.7 80.95-13.7ZM119.54-1.65L120.39 0Q119.74 0.4 118.69 0.4L118.69 0.4Q116.64 0.4 115.34-1.35L115.34-1.35 109.29-9.7Q107.64-11.95 106.12-12.93 104.59-13.9 102.49-14.15L102.49-14.15 102.49-16 106.39-16Q109.94-16 112.14-18.23 114.34-20.45 114.34-24.1L114.34-24.1Q114.34-27.65 112.24-29.93 110.14-32.2 106.94-32.2L106.94-32.2 98.24-32.2 98.24 0 96.14 0 96.14-34.2 107.14-34.2Q109.79-34.2 111.92-32.9 114.04-31.6 115.24-29.33 116.44-27.05 116.44-24.15L116.44-24.15Q116.44-20.1 114.29-17.57 112.14-15.05 108.54-14.8L108.54-14.8Q106.84-14.7 105.89-14.7L105.89-14.7Q107.19-14.5 107.84-14.15 108.49-13.8 109.19-12.9L109.19-12.9Q110.79-10.8 113.19-7.58 115.59-4.35 116.99-2.4L116.99-2.4Q117.64-1.5 118.64-1.5L118.64-1.5Q119.24-1.5 119.54-1.65L119.54-1.65ZM127.34-0.05L127.34-34.75 127.64-34.75 151.54-5.05 152.94-3.15 152.59-5.9 152.49-34.3 154.69-34.3 154.69 0 153.39 0 150.84-2.6 130.59-27.65 129.24-30.1 129.44-27.7 129.44-0.05 127.34-0.05ZM193.74 0.7Q188.89 0.7 184.96-1.55 181.04-3.8 178.79-7.73 176.54-11.65 176.54-16.55L176.54-16.55 176.54-17.5Q176.54-22.45 178.76-26.48 180.99-30.5 184.86-32.8 188.74-35.1 193.54-35.1L193.54-35.1Q198.34-35.1 202.24-32.8 206.14-30.5 208.39-26.48 210.64-22.45 210.64-17.5L210.64-17.5 210.64-16.55Q210.64-11.6 208.46-7.68 206.29-3.75 202.44-1.53 198.59 0.7 193.74 0.7L193.74 0.7ZM193.59-1.2Q197.79-1.2 201.21-3.2 204.64-5.2 206.59-8.72 208.54-12.25 208.54-16.55L208.54-16.55 208.54-17.5Q208.54-21.85 206.54-25.43 204.54-29 201.09-31.05 197.64-33.1 193.49-33.1L193.49-33.1Q189.34-33.1 185.94-31.05 182.54-29 180.59-25.43 178.64-21.85 178.64-17.5L178.64-17.5 178.64-16.55Q178.64-12.25 180.59-8.72 182.54-5.2 185.96-3.2 189.39-1.2 193.59-1.2L193.59-1.2ZM219.03-0.05L219.03-34.75 219.33-34.75 243.23-5.05 244.63-3.15 244.28-5.9 244.18-34.3 246.38-34.3 246.38 0 245.08 0 242.53-2.6 222.28-27.65 220.93-30.1 221.13-27.7 221.13-0.05 219.03-0.05ZM256.83-0.05L256.83-34.25 258.93-34.25 258.93-2.05 276.73-2.05 276.73-0.05 256.83-0.05ZM283.78-0.05L283.78-34.25 286.03-34.25 286.03-0.05 283.78-0.05ZM296.53-0.05L296.53-34.75 296.83-34.75 320.73-5.05 322.13-3.15 321.78-5.9 321.68-34.3 323.88-34.3 323.88 0 322.58 0 320.03-2.6 299.78-27.65 298.43-30.1 298.63-27.7 298.63-0.05 296.53-0.05ZM334.27-0.05L334.27-34.25 355.87-34.25 355.87-32.25 336.37-32.25 336.37-19.2 350.72-19.2 350.72-17.2 336.37-17.2 336.37-2.05 356.87-2.05 356.87-0.05 334.27-0.05Z" opacity="1" transform="matrix(1,0,0,1,0,0)" fill="#000000" class="undefined-text-0" data-fill-palette-color="primary" id="text-0"></path></svg></g></svg></g><g transform="matrix(1,0,0,1,163.310208,49.911135460736524)"><svg viewBox="0 0 232.209792 24.235825427260025" height="24.235825427260025" width="232.209792"><g transform="matrix(1,0,0,1,0,0)"><svg width="232.209792" viewBox="3 -39.25 501.06 52.300000000000004" height="24.235825427260025" data-palette-color="#ffb400"><path d="M15.1 0Q11.45 0 8.72-1.5 6-3 4.55-5.53 3.1-8.05 3.1-10.95L3.1-10.95Q3.1-13.45 5.55-13.45L5.55-13.45Q8-13.45 8.1-11.3L8.1-11.3Q8.15-8.1 10.2-6.3 12.25-4.5 15.1-4.5L15.1-4.5Q17.75-4.5 19.53-5.73 21.3-6.95 21.3-9.25L21.3-9.25Q21.3-11 20.3-12.13 19.3-13.25 17.73-13.95 16.15-14.65 13.65-15.4L13.65-15.4Q10.85-16.2 8.72-17.07 6.6-17.95 4.8-19.98 3-22 3-25.25L3-25.25Q3-28.2 4.55-30.5 6.1-32.8 8.75-34.1 11.4-35.4 14.5-35.4L14.5-35.4Q17.75-35.4 20.38-34 23-32.6 24.5-30.33 26-28.05 26-25.5L26-25.5Q26-24.2 25.4-23.63 24.8-23.05 23.6-23.05L23.6-23.05Q22.3-23.05 21.78-23.6 21.25-24.15 21.1-25.25L21.1-25.25Q21-27.6 19.2-29.25 17.4-30.9 14.5-30.9L14.5-30.9Q11.65-30.9 9.83-29.3 8-27.7 8-25.2L8-25.2Q8-23.6 8.95-22.63 9.9-21.65 11.35-21.08 12.8-20.5 15.9-19.55L15.9-19.55Q18.55-18.75 20.68-17.73 22.8-16.7 24.53-14.63 26.25-12.55 26.25-9.35L26.25-9.35Q26.25-6.55 24.8-4.42 23.35-2.3 20.8-1.15 18.25 0 15.1 0L15.1 0ZM46.9-8.75Q48.05-8.75 48.55-8.25 49.05-7.75 49.05-6.55L49.05-6.55Q49.05-3.7 47.2-1.83 45.35 0.05 42.5 0.05L42.5 0.05Q38.55 0.05 36.8-3.33 35.05-6.7 35.05-13.9L35.05-13.9Q35.05-16.45 35.2-19L35.2-19 32.8-19.15Q30.85-19.25 30.85-21.2L30.85-21.2Q30.85-22.2 31.37-22.68 31.9-23.15 33.1-23.1L33.1-23.1 35.55-22.95Q35.85-26.1 36.7-31.7L36.7-31.7Q37-33.5 39.15-33.5L39.15-33.5Q40.4-33.5 41.07-32.85 41.75-32.2 41.65-31.3L41.65-31.3Q40.95-26.95 40.45-22.7L40.45-22.7Q43.15-22.6 44-22.6L44-22.6Q44.95-22.6 45.4-22.18 45.85-21.75 45.85-20.85L45.85-20.85Q45.85-19.75 45.37-19.33 44.9-18.9 43.65-18.85L43.65-18.85 40.1-18.85Q39.95-16.45 39.95-13.9L39.95-13.9Q39.95-8.85 40.6-6.43 41.25-4 42.9-4L42.9-4Q44.8-4 44.95-6.95L44.95-6.95Q44.95-7.85 45.37-8.3 45.8-8.75 46.9-8.75L46.9-8.75ZM78-4Q78.75-3.9 79.17-3.5 79.59-3.1 79.59-2.15L79.59-2.15Q79.59-1.25 79.15-0.65 78.7-0.05 77.9-0.05L77.9-0.05Q75.84-0.05 74.82-0.65 73.8-1.25 72.95-2.9L72.95-2.9Q70.84 0.5 65.15 0.5L65.15 0.5Q59.35 0.5 56.6-3.03 53.85-6.55 53.85-11.8L53.85-11.8Q53.85-15.3 55.25-18.25 56.65-21.2 59.35-22.95 62.05-24.7 65.65-24.7L65.65-24.7Q67.95-24.7 69.72-23.8 71.5-22.9 72.4-21.35L72.4-21.35 72.55-22.6Q72.75-24.4 74.7-24.4L74.7-24.4Q76-24.4 76.55-23.83 77.09-23.25 77-22.4L77-22.4Q76.5-18.65 76.4-16.75L76.4-16.75Q76.25-14.95 76.25-12.05L76.25-12.05 76.25-8.75Q76.25-6.15 76.52-5.15 76.8-4.15 78-4L78-4ZM71.34-8.75Q71.4-11 71.4-14.9L71.4-14.9Q71.4-16.95 70.52-18.25 69.65-19.55 68.37-20.15 67.09-20.75 65.8-20.75L65.8-20.75Q63.55-20.75 61.97-19.43 60.4-18.1 59.62-16.05 58.85-14 58.85-11.8L58.85-11.8Q58.85-8.45 60.42-5.98 62-3.5 65.34-3.5L65.34-3.5Q68-3.5 69.65-4.85 71.3-6.2 71.34-8.75L71.34-8.75ZM93.24 13.05Q92.14 13.05 91.39 12.38 90.64 11.7 90.64 10.75L90.64 10.75Q90.64 10.3 90.84 9.9L90.84 9.9Q93.14 3.95 95.24-1.95L95.24-1.95Q93.09-3.4 90.87-6.98 88.64-10.55 86.89-14.88 85.14-19.2 84.29-22.75L84.29-22.75Q84.19-23.15 84.19-23.5L84.19-23.5Q84.19-24.35 84.87-24.9 85.54-25.45 86.64-25.45L86.64-25.45Q87.59-25.45 88.02-25.05 88.44-24.65 88.64-23.8L88.64-23.8Q92.94-9.4 96.89-6.75L96.89-6.75Q98.64-12.75 101.54-24.05L101.54-24.05Q101.79-24.9 102.24-25.25 102.69-25.6 103.59-25.6L103.59-25.6Q104.79-25.6 105.52-25.08 106.24-24.55 106.34-23.7L106.34-23.7Q106.39-23.5 106.29-23.15L106.29-23.15Q104.79-17.15 103.59-12.85 102.39-8.55 100.89-4.1L100.89-4.1Q99.74-0.65 98.07 4.15 96.39 8.95 95.39 11.45L95.39 11.45Q95.09 12.25 94.62 12.65 94.14 13.05 93.24 13.05L93.24 13.05ZM150.64-19Q151.29-16.25 151.56-12.08 151.84-7.9 151.84-1.95L151.84-1.95Q151.84-1.15 151.11-0.6 150.39-0.05 149.34-0.05L149.34-0.05Q148.29-0.05 147.59-0.6 146.89-1.15 146.89-2.2L146.89-2.2Q146.89-14.8 145.89-18.35L145.89-18.35Q145.39-20.15 144.39-20.93 143.39-21.7 141.84-21.7L141.84-21.7Q138.39-21.7 136.56-18.93 134.74-16.15 134.74-12.35L134.74-12.35 134.74-1.9Q134.74-1.1 134.04-0.6 133.34-0.1 132.29-0.1L132.29-0.1Q131.19-0.1 130.49-0.63 129.79-1.15 129.79-1.95L129.79-1.95Q129.79-12.05 130.04-21.3L130.04-21.3Q130.24-28.45 130.84-37.1L130.84-37.1Q130.99-39.25 133.29-39.25L133.29-39.25Q134.39-39.25 135.01-38.78 135.64-38.3 135.59-37.4L135.59-37.4 135.09-27.8 134.79-22.3Q135.99-23.85 137.94-24.85 139.89-25.85 142.64-25.85L142.64-25.85Q145.94-25.85 147.84-24.18 149.74-22.5 150.64-19L150.64-19ZM168.89 0.1Q162.99 0.1 159.26-3.03 155.54-6.15 155.54-12.4L155.54-12.4Q155.54-16.35 157.11-19.4 158.69-22.45 161.61-24.15 164.54-25.85 168.54-25.85L168.54-25.85Q172.44-25.85 175.51-24.2 178.59-22.55 180.31-19.48 182.04-16.4 182.04-12.3L182.04-12.3Q182.04-6.3 178.44-3.1 174.84 0.1 168.89 0.1L168.89 0.1ZM168.79-3.85Q172.49-3.85 174.79-6.03 177.09-8.2 177.09-12.4L177.09-12.4Q177.09-15.1 176.06-17.28 175.04-19.45 173.11-20.68 171.19-21.9 168.69-21.9L168.69-21.9Q164.99-21.9 162.76-19.33 160.54-16.75 160.54-12.45L160.54-12.45Q160.54-8.05 162.89-5.95 165.24-3.85 168.79-3.85L168.79-3.85ZM211.73-25.4Q216.33-25.4 218.26-22.25 220.18-19.1 220.18-13.55L220.18-13.55 220.08-1.95Q220.08-1.05 219.48-0.53 218.88 0 217.78 0L217.78 0Q216.68 0 216.03-0.55 215.38-1.1 215.38-2.1L215.38-2.1 215.38-13.55Q215.38-17.9 214.51-19.78 213.63-21.65 211.33-21.65L211.33-21.65Q209.33-21.65 208.26-19.2 207.18-16.75 207.13-13.05L207.13-13.05 207.13-9.35 207.13-2.1Q207.13-0.1 204.78-0.1L204.78-0.1Q202.23-0.1 202.23-2.15L202.23-2.15 202.28-10.8 202.28-13.05Q202.28-16.6 201.11-19.03 199.93-21.45 197.83-21.45L197.83-21.45Q194.73-21.45 193.28-14.6L193.28-14.6Q192.88-12.45 192.88-8.4L192.88-8.4 192.88-5 192.88-1.85Q192.88-1.05 192.21-0.58 191.53-0.1 190.63-0.1L190.63-0.1Q189.53-0.1 188.86-0.55 188.18-1 188.18-1.9L188.18-1.9Q188.18-12.75 188.13-19L188.13-19Q188.08-20.2 187.86-20.78 187.63-21.35 187.18-21.75L187.18-21.75Q187.13-21.8 186.86-22.05 186.58-22.3 186.58-22.75L186.58-22.75Q186.58-23.7 187.28-24.3 187.98-24.9 188.83-24.9L188.83-24.9Q189.68-24.9 190.63-23.55L190.63-23.55Q191.58-22.3 191.58-20.65L191.58-20.65 191.58-19.95Q192.43-22.4 194.08-23.83 195.73-25.25 198.13-25.25L198.13-25.25Q202.93-25.25 204.58-20.3L204.58-20.3Q205.43-22.75 207.28-24.08 209.13-25.4 211.73-25.4L211.73-25.4ZM239.48 0.3Q235.23 0.3 232.21-1.45 229.18-3.2 227.66-6.15 226.13-9.1 226.13-12.65L226.13-12.65Q226.13-16.3 227.78-19.28 229.43-22.25 232.43-23.98 235.43-25.7 239.28-25.7L239.28-25.7Q242.68-25.7 245.41-24.33 248.13-22.95 249.68-20.45 251.23-17.95 251.23-14.75L251.23-14.75Q251.23-13.05 250.73-12.33 250.23-11.6 248.68-11.55L248.68-11.55 230.63-11.3Q230.63-9.65 231.68-7.9 232.73-6.15 234.71-4.98 236.68-3.8 239.33-3.8L239.33-3.8Q241.23-3.8 242.56-4.33 243.88-4.85 244.68-5.58 245.48-6.3 246.58-7.5L246.58-7.5Q247.13-8.05 247.98-8.05L247.98-8.05Q248.78-8.05 249.51-7.43 250.23-6.8 250.23-6L250.23-6Q250.23-5.35 249.78-4.75L249.78-4.75Q248.38-2.75 246.03-1.23 243.68 0.3 239.48 0.3L239.48 0.3ZM230.63-14.8L246.53-15.1Q246.83-15.1 246.96-15.28 247.08-15.45 247.08-15.8L247.08-15.8Q247.08-18.45 244.86-20.13 242.63-21.8 239.28-21.8L239.28-21.8Q236.73-21.8 234.76-20.6 232.78-19.4 231.71-17.73 230.63-16.05 230.63-14.8L230.63-14.8ZM285.83 0Q282.18 0 279.45-1.5 276.73-3 275.28-5.53 273.83-8.05 273.83-10.95L273.83-10.95Q273.83-13.45 276.28-13.45L276.28-13.45Q278.73-13.45 278.83-11.3L278.83-11.3Q278.88-8.1 280.93-6.3 282.98-4.5 285.83-4.5L285.83-4.5Q288.48-4.5 290.25-5.73 292.03-6.95 292.03-9.25L292.03-9.25Q292.03-11 291.03-12.13 290.03-13.25 288.45-13.95 286.88-14.65 284.38-15.4L284.38-15.4Q281.58-16.2 279.45-17.07 277.33-17.95 275.53-19.98 273.73-22 273.73-25.25L273.73-25.25Q273.73-28.2 275.28-30.5 276.83-32.8 279.48-34.1 282.13-35.4 285.23-35.4L285.23-35.4Q288.48-35.4 291.1-34 293.73-32.6 295.23-30.33 296.73-28.05 296.73-25.5L296.73-25.5Q296.73-24.2 296.13-23.63 295.53-23.05 294.33-23.05L294.33-23.05Q293.03-23.05 292.5-23.6 291.98-24.15 291.83-25.25L291.83-25.25Q291.73-27.6 289.93-29.25 288.13-30.9 285.23-30.9L285.23-30.9Q282.38-30.9 280.55-29.3 278.73-27.7 278.73-25.2L278.73-25.2Q278.73-23.6 279.68-22.63 280.63-21.65 282.08-21.08 283.53-20.5 286.63-19.55L286.63-19.55Q289.28-18.75 291.4-17.73 293.53-16.7 295.25-14.63 296.98-12.55 296.98-9.35L296.98-9.35Q296.98-6.55 295.53-4.42 294.08-2.3 291.53-1.15 288.98 0 285.83 0L285.83 0ZM317.62-8.75Q318.77-8.75 319.27-8.25 319.77-7.75 319.77-6.55L319.77-6.55Q319.77-3.7 317.92-1.83 316.07 0.05 313.22 0.05L313.22 0.05Q309.27 0.05 307.52-3.33 305.77-6.7 305.77-13.9L305.77-13.9Q305.77-16.45 305.92-19L305.92-19 303.52-19.15Q301.57-19.25 301.57-21.2L301.57-21.2Q301.57-22.2 302.1-22.68 302.62-23.15 303.82-23.1L303.82-23.1 306.27-22.95Q306.57-26.1 307.42-31.7L307.42-31.7Q307.72-33.5 309.87-33.5L309.87-33.5Q311.12-33.5 311.8-32.85 312.47-32.2 312.37-31.3L312.37-31.3Q311.67-26.95 311.17-22.7L311.17-22.7Q313.87-22.6 314.72-22.6L314.72-22.6Q315.67-22.6 316.12-22.18 316.57-21.75 316.57-20.85L316.57-20.85Q316.57-19.75 316.1-19.33 315.62-18.9 314.37-18.85L314.37-18.85 310.82-18.85Q310.67-16.45 310.67-13.9L310.67-13.9Q310.67-8.85 311.32-6.43 311.97-4 313.62-4L313.62-4Q315.52-4 315.67-6.95L315.67-6.95Q315.67-7.85 316.1-8.3 316.52-8.75 317.62-8.75L317.62-8.75ZM348.72-4Q349.47-3.9 349.9-3.5 350.32-3.1 350.32-2.15L350.32-2.15Q350.32-1.25 349.87-0.65 349.42-0.05 348.62-0.05L348.62-0.05Q346.57-0.05 345.55-0.65 344.52-1.25 343.67-2.9L343.67-2.9Q341.57 0.5 335.87 0.5L335.87 0.5Q330.07 0.5 327.32-3.03 324.57-6.55 324.57-11.8L324.57-11.8Q324.57-15.3 325.97-18.25 327.37-21.2 330.07-22.95 332.77-24.7 336.37-24.7L336.37-24.7Q338.67-24.7 340.45-23.8 342.22-22.9 343.12-21.35L343.12-21.35 343.27-22.6Q343.47-24.4 345.42-24.4L345.42-24.4Q346.72-24.4 347.27-23.83 347.82-23.25 347.72-22.4L347.72-22.4Q347.22-18.65 347.12-16.75L347.12-16.75Q346.97-14.95 346.97-12.05L346.97-12.05 346.97-8.75Q346.97-6.15 347.25-5.15 347.52-4.15 348.72-4L348.72-4ZM342.07-8.75Q342.12-11 342.12-14.9L342.12-14.9Q342.12-16.95 341.25-18.25 340.37-19.55 339.1-20.15 337.82-20.75 336.52-20.75L336.52-20.75Q334.27-20.75 332.7-19.43 331.12-18.1 330.35-16.05 329.57-14 329.57-11.8L329.57-11.8Q329.57-8.45 331.15-5.98 332.72-3.5 336.07-3.5L336.07-3.5Q338.72-3.5 340.37-4.85 342.02-6.2 342.07-8.75L342.07-8.75ZM363.97 13.05Q362.87 13.05 362.12 12.38 361.37 11.7 361.37 10.75L361.37 10.75Q361.37 10.3 361.57 9.9L361.57 9.9Q363.87 3.95 365.97-1.95L365.97-1.95Q363.82-3.4 361.59-6.98 359.37-10.55 357.62-14.88 355.87-19.2 355.02-22.75L355.02-22.75Q354.92-23.15 354.92-23.5L354.92-23.5Q354.92-24.35 355.59-24.9 356.27-25.45 357.37-25.45L357.37-25.45Q358.32-25.45 358.74-25.05 359.17-24.65 359.37-23.8L359.37-23.8Q363.67-9.4 367.62-6.75L367.62-6.75Q369.37-12.75 372.27-24.05L372.27-24.05Q372.52-24.9 372.97-25.25 373.42-25.6 374.32-25.6L374.32-25.6Q375.52-25.6 376.24-25.08 376.97-24.55 377.07-23.7L377.07-23.7Q377.12-23.5 377.02-23.15L377.02-23.15Q375.52-17.15 374.32-12.85 373.12-8.55 371.62-4.1L371.62-4.1Q370.47-0.65 368.79 4.15 367.12 8.95 366.12 11.45L366.12 11.45Q365.82 12.25 365.34 12.65 364.87 13.05 363.97 13.05L363.97 13.05ZM411.16 0Q407.51 0 404.79-1.5 402.06-3 400.61-5.53 399.16-8.05 399.16-10.95L399.16-10.95Q399.16-13.45 401.61-13.45L401.61-13.45Q404.06-13.45 404.16-11.3L404.16-11.3Q404.21-8.1 406.26-6.3 408.31-4.5 411.16-4.5L411.16-4.5Q413.81-4.5 415.59-5.73 417.36-6.95 417.36-9.25L417.36-9.25Q417.36-11 416.36-12.13 415.36-13.25 413.79-13.95 412.21-14.65 409.71-15.4L409.71-15.4Q406.91-16.2 404.79-17.07 402.66-17.95 400.86-19.98 399.06-22 399.06-25.25L399.06-25.25Q399.06-28.2 400.61-30.5 402.16-32.8 404.81-34.1 407.46-35.4 410.56-35.4L410.56-35.4Q413.81-35.4 416.44-34 419.06-32.6 420.56-30.33 422.06-28.05 422.06-25.5L422.06-25.5Q422.06-24.2 421.46-23.63 420.86-23.05 419.66-23.05L419.66-23.05Q418.36-23.05 417.84-23.6 417.31-24.15 417.16-25.25L417.16-25.25Q417.06-27.6 415.26-29.25 413.46-30.9 410.56-30.9L410.56-30.9Q407.71-30.9 405.89-29.3 404.06-27.7 404.06-25.2L404.06-25.2Q404.06-23.6 405.01-22.63 405.96-21.65 407.41-21.08 408.86-20.5 411.96-19.55L411.96-19.55Q414.61-18.75 416.74-17.73 418.86-16.7 420.59-14.63 422.31-12.55 422.31-9.35L422.31-9.35Q422.31-6.55 420.86-4.42 419.41-2.3 416.86-1.15 414.31 0 411.16 0L411.16 0ZM452.01-4Q452.76-3.9 453.19-3.5 453.61-3.1 453.61-2.15L453.61-2.15Q453.61-1.25 453.16-0.65 452.71-0.05 451.91-0.05L451.91-0.05Q449.86-0.05 448.84-0.65 447.81-1.25 446.96-2.9L446.96-2.9Q444.86 0.5 439.16 0.5L439.16 0.5Q433.36 0.5 430.61-3.03 427.86-6.55 427.86-11.8L427.86-11.8Q427.86-15.3 429.26-18.25 430.66-21.2 433.36-22.95 436.06-24.7 439.66-24.7L439.66-24.7Q441.96-24.7 443.74-23.8 445.51-22.9 446.41-21.35L446.41-21.35 446.56-22.6Q446.76-24.4 448.71-24.4L448.71-24.4Q450.01-24.4 450.56-23.83 451.11-23.25 451.01-22.4L451.01-22.4Q450.51-18.65 450.41-16.75L450.41-16.75Q450.26-14.95 450.26-12.05L450.26-12.05 450.26-8.75Q450.26-6.15 450.54-5.15 450.81-4.15 452.01-4L452.01-4ZM445.36-8.75Q445.41-11 445.41-14.9L445.41-14.9Q445.41-16.95 444.54-18.25 443.66-19.55 442.39-20.15 441.11-20.75 439.81-20.75L439.81-20.75Q437.56-20.75 435.99-19.43 434.41-18.1 433.64-16.05 432.86-14 432.86-11.8L432.86-11.8Q432.86-8.45 434.44-5.98 436.01-3.5 439.36-3.5L439.36-3.5Q442.01-3.5 443.66-4.85 445.31-6.2 445.36-8.75L445.36-8.75ZM469.66-37Q473.16-37 475.08-35.02 477.01-33.05 477.01-29.15L477.01-29.15Q477.01-27.9 476.43-27.28 475.86-26.65 474.61-26.65L474.61-26.65Q472.21-26.65 472.11-28.8L472.11-28.8Q472.06-30.75 471.61-31.83 471.16-32.9 469.61-32.9L469.61-32.9Q467.91-32.9 467.28-31.38 466.66-29.85 466.66-26.4L466.66-26.4 466.66-20.65 470.21-20.65Q471.11-20.65 471.56-20.13 472.01-19.6 472.01-18.65L472.01-18.65Q472.01-16.85 470.16-16.8L470.16-16.8Q468.76-16.75 466.71-16.75L466.71-16.75 466.86-2.1Q466.91-1.05 466.23-0.53 465.56 0 464.46 0L464.46 0Q463.31 0 462.68-0.58 462.06-1.15 462.06-2.05L462.06-2.05Q462.01-7.4 461.81-16.65L461.81-16.65Q461.16-16.6 459.41-16.6L459.41-16.6Q458.26-16.6 457.76-17.1 457.26-17.6 457.26-18.6L457.26-18.6Q457.26-19.5 457.68-20 458.11-20.5 459.31-20.55L459.31-20.55 461.76-20.55Q461.66-24.95 461.66-26.65L461.66-26.65Q461.66-31.5 463.66-34.25 465.66-37 469.66-37L469.66-37ZM492.31 0.3Q488.06 0.3 485.03-1.45 482.01-3.2 480.48-6.15 478.96-9.1 478.96-12.65L478.96-12.65Q478.96-16.3 480.61-19.28 482.26-22.25 485.26-23.98 488.26-25.7 492.11-25.7L492.11-25.7Q495.51-25.7 498.23-24.33 500.96-22.95 502.51-20.45 504.06-17.95 504.06-14.75L504.06-14.75Q504.06-13.05 503.56-12.33 503.06-11.6 501.51-11.55L501.51-11.55 483.46-11.3Q483.46-9.65 484.51-7.9 485.56-6.15 487.53-4.98 489.51-3.8 492.16-3.8L492.16-3.8Q494.06-3.8 495.38-4.33 496.71-4.85 497.51-5.58 498.31-6.3 499.41-7.5L499.41-7.5Q499.96-8.05 500.81-8.05L500.81-8.05Q501.61-8.05 502.33-7.43 503.06-6.8 503.06-6L503.06-6Q503.06-5.35 502.61-4.75L502.61-4.75Q501.21-2.75 498.86-1.23 496.51 0.3 492.31 0.3L492.31 0.3ZM483.46-14.8L499.36-15.1Q499.66-15.1 499.78-15.28 499.91-15.45 499.91-15.8L499.91-15.8Q499.91-18.45 497.68-20.13 495.46-21.8 492.11-21.8L492.11-21.8Q489.56-21.8 487.58-20.6 485.61-19.4 484.53-17.73 483.46-16.05 483.46-14.8L483.46-14.8Z" opacity="1" transform="matrix(1,0,0,1,0,0)" fill="#000000" class="undefined-text-1" data-fill-palette-color="secondary" id="text-1"></path></svg></g></svg></g></svg></g></svg></g><g transform="matrix(1,0,0,1,418.2262738328377,0)"><svg viewBox="0 0 118.90324548910849 102.47109994721124" height="102.47109994721124" width="118.90324548910849"><g><svg xmlns="http://www.w3.org/2000/svg" xmlns:xlink="http://www.w3.org/1999/xlink" version="1.1" x="0" y="0" viewBox="4.600999999999999 9 91.32424205350193 78.70344914954326" enable-background="new 0 0 100 100" xml:space="preserve" height="102.47109994721124" width="118.90324548910849" class="icon-icon-0" data-fill-palette-color="accent" id="icon-0"><g fill="#ffebe7" data-fill-palette-color="accent"><path fill-rule="evenodd" clip-rule="evenodd" d="M56.809 28.396c5.314 0 9.66-4.343 9.66-9.661 0-5.392-4.346-9.735-9.66-9.735-3.896 0-7.34 2.321-8.838 5.691-0.599 1.198-0.898 2.621-0.898 4.044 0 1.422 0.299 2.77 0.898 4.043C49.468 26.074 52.912 28.396 56.809 28.396zM68.439 66.737c1.287-3.343 2.109-6.596 3.402-10.109-4.418 0-6.973-0.146-11.33-0.031-3.445 0-4.902 1.977-6.025 4.374-2.17 5.69-4.343 11.456-6.516 17.147-1.085 2.968-2.278 5.981-3.371 8.952h11.947c2.398-7.02 4.762-13.554 7.562-20.333H68.439zM94.893 53.172c-0.311-0.77-0.664-1.52-1.037-2.26-0.223-0.444-1.34-1.927-1.254-2.373 0.9-4.643 1.93-9.307 2.828-13.95 0.756-3.659-0.803-5.954-2.973-6.853-2.846-1.198-4.572-1.886-7.342-3.084-1.199-0.524-2.398-1.049-3.67-1.572-3.67-1.798-6.143-2.282-9.811 0.224-6.891 4.343-14.584 9.294-21.474 13.713 0.9-2.396 2.298-5.325 3.199-7.723-1.873-0.672-3.516-1.421-5.389-2.17-0.299-0.15-0.599-0.225-0.898-0.375l-0.149 0.375c-2.138 4.518-4.911 9.987-6.56 14.479-1.092 3.415 2.628 6.088 5.994 4.999 0.075 0 10.525-4.801 14.792-6.673 4.793 5.466 9.51 11.008 14.301 16.475-2.395 1.497-2.926 1.913-4.041 5.316-2.965 8.451-5.93 16.902-8.895 25.352H74.98l7.131-20.083c0.748 0.075 2.18 0.199 3.004 0.199 2.367 0 4.678 0.065 6.824-1.118C96.557 63.523 96.598 57.445 94.893 53.172zM90.281 54.306h-7.49l2.324-12.356 0.373-1.871-0.373-0.524-5.244-7.49 5.244 1.274 2.77 0.599-3.508 19.329 5.914 0.008L90.281 54.306zM43.104 55.879c1.573 0.225 3.22 0.523 4.867 0.824 0.697 0.115 1.35 0.23 2.026 0.348l2.269-7.548c-1.597-0.353-31.729-6.375-45.482-9.127l-2.183 7.221c2.719 0.642 4.846 1.173 7.575 1.841-0.824 0.524-1.571 1.124-2.394 1.647 1.796 2.021 3.518 4.043 5.316 6.066 3.07-3.146 6.665-4.568 10.784-4.195 7.338 1.199 12.729 5.317 12.58 13.854 0.133 7.967-7.587 13.511-13.479 13.703-3.71-0.043-7.113-2.171-10.109-4.194-1.871 1.424-3.744 2.848-5.616 4.194 3.295 4.345 8.088 7.265 16.249 7.189 13.287-1.344 19.276-9.361 20.519-20.518C46.53 62.438 45.051 59.398 43.104 55.879z" fill="#000000" data-fill-palette-color="accent"></path></g></svg></g></svg></g></svg></g></svg></g></svg></g><defs></defs></svg><rect width="395.52" height="247.2" fill="none" stroke="none" visibility="hidden"></rect></g></svg></g></svg>