<svg xmlns="http://www.w3.org/2000/svg" version="1.1" xmlns:xlink="http://www.w3.org/1999/xlink" xmlns:svgjs="http://svgjs.dev/svgjs" width="128" height="128" viewBox="0 0 128 128"><g transform="matrix(0.8046875,0,0,0.8046875,12.333870967741937,12.333870967741937)"><svg viewBox="0 0 155 155" data-background-color="#171a21" preserveAspectRatio="xMidYMid meet" height="128" width="128" xmlns="http://www.w3.org/2000/svg" xmlns:xlink="http://www.w3.org/1999/xlink"><g id="tight-bounds" transform="matrix(1,0,0,1,0.25,0.25)"><svg viewBox="0 0 154.5 154.5" height="154.5" width="154.5"><g><svg></svg></g><g><svg viewBox="0 0 154.5 154.5" height="154.5" width="154.5"><g transform="matrix(1,0,0,1,53.28564253209291,56.5974597)"><svg viewBox="0 0 47.92871493581419 41.3050806" height="41.3050806" width="47.92871493581419"><g><svg viewBox="0 0 47.92871493581419 41.3050806" height="41.3050806" width="47.92871493581419"><g><svg viewBox="0 0 47.92871493581419 41.3050806" height="41.3050806" width="47.92871493581419"><g><svg viewBox="0 0 47.92871493581419 41.3050806" height="41.3050806" width="47.92871493581419"><g><svg viewBox="0 0 47.92871493581419 41.3050806" height="41.3050806" width="47.92871493581419"><g><svg viewBox="0 0 47.92871493581419 41.3050806" height="41.3050806" width="47.92871493581419"><g><svg xmlns="http://www.w3.org/2000/svg" xmlns:xlink="http://www.w3.org/1999/xlink" version="1.1" x="0" y="0" viewBox="4.600999999999999 9 91.32424205350193 78.70344914954326" enable-background="new 0 0 100 100" xml:space="preserve" height="41.3050806" width="47.92871493581419" class="icon-icon-0" data-fill-palette-color="accent" id="icon-0"><g fill="#ffebe7" data-fill-palette-color="accent"><path fill-rule="evenodd" clip-rule="evenodd" d="M56.809 28.396c5.314 0 9.66-4.343 9.66-9.661 0-5.392-4.346-9.735-9.66-9.735-3.896 0-7.34 2.321-8.838 5.691-0.599 1.198-0.898 2.621-0.898 4.044 0 1.422 0.299 2.77 0.898 4.043C49.468 26.074 52.912 28.396 56.809 28.396zM68.439 66.737c1.287-3.343 2.109-6.596 3.402-10.109-4.418 0-6.973-0.146-11.33-0.031-3.445 0-4.902 1.977-6.025 4.374-2.17 5.69-4.343 11.456-6.516 17.147-1.085 2.968-2.278 5.981-3.371 8.952h11.947c2.398-7.02 4.762-13.554 7.562-20.333H68.439zM94.893 53.172c-0.311-0.77-0.664-1.52-1.037-2.26-0.223-0.444-1.34-1.927-1.254-2.373 0.9-4.643 1.93-9.307 2.828-13.95 0.756-3.659-0.803-5.954-2.973-6.853-2.846-1.198-4.572-1.886-7.342-3.084-1.199-0.524-2.398-1.049-3.67-1.572-3.67-1.798-6.143-2.282-9.811 0.224-6.891 4.343-14.584 9.294-21.474 13.713 0.9-2.396 2.298-5.325 3.199-7.723-1.873-0.672-3.516-1.421-5.389-2.17-0.299-0.15-0.599-0.225-0.898-0.375l-0.149 0.375c-2.138 4.518-4.911 9.987-6.56 14.479-1.092 3.415 2.628 6.088 5.994 4.999 0.075 0 10.525-4.801 14.792-6.673 4.793 5.466 9.51 11.008 14.301 16.475-2.395 1.497-2.926 1.913-4.041 5.316-2.965 8.451-5.93 16.902-8.895 25.352H74.98l7.131-20.083c0.748 0.075 2.18 0.199 3.004 0.199 2.367 0 4.678 0.065 6.824-1.118C96.557 63.523 96.598 57.445 94.893 53.172zM90.281 54.306h-7.49l2.324-12.356 0.373-1.871-0.373-0.524-5.244-7.49 5.244 1.274 2.77 0.599-3.508 19.329 5.914 0.008L90.281 54.306zM43.104 55.879c1.573 0.225 3.22 0.523 4.867 0.824 0.697 0.115 1.35 0.23 2.026 0.348l2.269-7.548c-1.597-0.353-31.729-6.375-45.482-9.127l-2.183 7.221c2.719 0.642 4.846 1.173 7.575 1.841-0.824 0.524-1.571 1.124-2.394 1.647 1.796 2.021 3.518 4.043 5.316 6.066 3.07-3.146 6.665-4.568 10.784-4.195 7.338 1.199 12.729 5.317 12.58 13.854 0.133 7.967-7.587 13.511-13.479 13.703-3.71-0.043-7.113-2.171-10.109-4.194-1.871 1.424-3.744 2.848-5.616 4.194 3.295 4.345 8.088 7.265 16.249 7.189 13.287-1.344 19.276-9.361 20.519-20.518C46.53 62.438 45.051 59.398 43.104 55.879z" fill="#000000" data-fill-palette-color="accent"></path></g></svg></g></svg></g></svg></g></svg></g></svg></g></svg></g></svg></g><g><path d="M0 154.5v-154.5h154.5v154.5zM150.775 150.775v-147.05h-147.05v147.05z" fill="#000000" fill-rule="nonzero" stroke="none" stroke-width="1" stroke-linecap="butt" stroke-linejoin="miter" stroke-miterlimit="10" stroke-dasharray="" stroke-dashoffset="0" font-family="none" font-weight="none" font-size="none" text-anchor="none" style="mix-blend-mode: normal" data-fill-palette-color="tertiary"></path></g></svg></g><defs></defs></svg><rect width="154.5" height="154.5" fill="none" stroke="none" visibility="hidden"></rect></g></svg></g></svg>